<?xml version="1.0" standalone="no"?><!DOCTYPE svg PUBLIC "-//W3C//DTD SVG 1.1//EN" "http://www.w3.org/Graphics/SVG/1.1/DTD/svg11.dtd"><svg t="1723429140918" class="icon" viewBox="0 0 1024 1024" version="1.1" xmlns="http://www.w3.org/2000/svg" p-id="3060" xmlns:xlink="http://www.w3.org/1999/xlink" width="200" height="200"><path d="M554.5 752.5l-39-16c206.3-501.8 19.2-603.9 17.3-604.9L551.9 94c9.2 4.6 223.6 121 2.6 658.5z" fill="#6089FE" p-id="3061"></path><path d="M444.9 752.5c-221-537.4-6.7-653.9 2.6-658.6l19.1 37.6-9.6-18.8 9.8 18.7c-1.9 1-187.3 107.8 17.1 605l-39 16.1zM572.1 842.4l-42.1-1.9c2.8-62.6 34.1-116.2 35.4-118.4l36.3 21.5-18.2-10.7 18.2 10.7c-0.3 0.4-27.3 46.9-29.6 98.8zM420.5 842.4c-2.4-52.2-29.3-98.4-29.6-98.9l36.3-21.5c1.3 2.3 32.6 55.8 35.4 118.4l-42.1 2z" fill="#6089FE" p-id="3062"></path><path d="M581.6 773.4H417.7l-6-5.5c-2.6-2.4-64.9-59.7-123.6-144.7-80.2-116.1-112.9-223-97.2-317.8 37-222.3 287-215.8 308.8-214.7 21.8-1 271.8-7.5 308.8 214.7 15.8 94.7-16.9 201.7-97.2 317.8-58.7 85-121 142.3-123.6 144.7l-6.1 5.5z m-147.3-42.2H565c36.6-35.5 232.3-235.5 201.8-418.9-13.4-80.8-61.6-135.5-143.2-162.6-62.8-20.8-121.9-16.9-122.4-16.9l-1.5 0.1-1.5-0.1c-0.6 0-60.7-3.9-123.6 17.3-80.9 27.2-128.7 81.8-142.1 162.2C202 495.9 397.8 695.7 434.3 731.2z" fill="#6089FE" p-id="3063"></path><path d="M416.4 841.5H583v71H416.4z" fill="#6089FE" opacity=".8" p-id="3064"></path><path d="M583 933.6H416.4c-11.6 0-21.1-9.4-21.1-21.1v-71c0-11.6 9.4-21.1 21.1-21.1H583c11.6 0 21.1 9.4 21.1 21.1v71c-0.1 11.6-9.5 21.1-21.1 21.1z m-145.5-42.2h124.4v-28.8H437.5v28.8z" fill="#6089FE" p-id="3065"></path></svg>